<?xml version="1.0" encoding="utf-8" ?>
<svg xmlns="http://www.w3.org/2000/svg" xmlns:xlink="http://www.w3.org/1999/xlink" width="2679" height="2679" viewBox="0 0 2679 2679">
  <!-- Achtergrond -->
  <path fill="#FDFDFB" transform="scale(2.61613 2.61613)" d="M0 0L1024 0L1024 1024L0 1024L0 0Z"/>
  <!-- Lichaam -->
  <path transform="scale(2.61613 2.61613)" d="M116.287 573.788C118.512 567.843 122.493 560.354 125.549 554.716C150.387 508.879 182.847 466.471 218.692 428.782C291.645 352.037 386.651 291.286 492.778 275.417C549.202 266.98 612.596 275.119 659.121 310.146C721.367 303.439 802.514 305.595 861.769 326.728C878.881 332.831 898.584 344.066 913.516 354.3C902.643 355.063 887.879 358.505 876.873 360.709C836.927 368.707 801.866 379.44 764.51 395.407C756.253 398.928 748.109 402.706 740.088 406.735C735.98 408.798 729.553 412.397 725.563 414.08C711.2 422.44 695.891 432.327 683.097 442.952C615.789 498.851 580.648 580.782 583.854 667.904C584.791 693.381 588.017 715.814 589.849 740.692C591.74 765.426 591.44 790.278 588.954 814.959C587.617 812.472 586.47 809.561 585.278 806.975C579.839 795.165 573.694 783.435 567.202 772.168C537.83 721.786 497.689 678.515 449.651 645.449C352.705 577.664 232.524 551.829 116.287 573.788Z"/>
  <!-- Snavel -->
  <path fill="#F95118" transform="scale(2.61613 2.61613)" d="M659.121 310.146C721.367 303.439 802.514 305.595 861.769 326.728C878.881 332.831 898.584 344.066 913.516 354.3C902.643 355.063 887.879 358.505 876.873 360.709C836.927 368.707 801.866 379.44 764.51 395.407C756.253 398.928 748.109 402.706 740.088 406.735C735.98 408.798 729.553 412.397 725.563 414.08C723.59 413.992 717.537 415.743 715.301 416.353C645.17 435.456 575.588 462.902 515.832 504.836C510.556 508.539 505.698 512.591 500.254 516.153C512.537 499.466 525.45 481.775 539.676 466.652C593.99 408.915 657.797 375.817 734.931 360.2C733.339 359.244 732.662 359.52 730.795 359.317C716.219 361.37 700.898 361.619 686.282 363.994C653.188 369.372 619.034 374.652 586.743 383.653C592.546 379.025 599.102 375.074 604.921 370.4C623.86 355.188 639.212 335.937 653.769 316.635C655.565 314.253 656.894 312.151 659.121 310.146Z"/>
  <!-- Snaveldetal donker -->
  <path fill="#300403" transform="scale(2.61613 2.61613)" d="M740.397 358.334L739.672 359.409C738.082 359.602 736.512 359.941 734.931 360.2C733.339 359.244 732.662 359.52 730.795 359.317C733.984 358.886 737.186 358.558 740.397 358.334Z"/>
  <!-- Snaveldetal rood -->
  <path fill="#AB2B13" transform="scale(2.61613 2.61613)" d="M740.397 358.334C741.11 358.138 743.248 357.636 743.765 358.308C743.521 359.221 740.413 359.319 739.672 359.409L740.397 358.334Z"/>
  <!-- Oog -->
  <path fill="#FDFDFB" transform="scale(2.61613 2.61613)" d="M514.316 344.741C529.295 342.442 543.284 352.774 545.492 367.767C547.7 382.76 537.283 396.685 522.277 398.802C507.4 400.9 493.62 390.592 491.431 375.728C489.242 360.864 499.466 347.021 514.316 344.741Z"/>
</svg>
